<?xml version="1.0" ?><!DOCTYPE svg  PUBLIC '-//W3C//DTD SVG 1.1//EN'  'http://www.w3.org/Graphics/SVG/1.1/DTD/svg11.dtd'><svg enable-background="new 0 0 300 300" height="300px" id="Layer_1" version="1.1" viewBox="0 0 300 300" width="300px" xml:space="preserve" xmlns="http://www.w3.org/2000/svg" xmlns:xlink="http://www.w3.org/1999/xlink"><path d="  M34.5,186.5c0,8.284,6.716,15,15,15h204c8.284,0,15-6.716,15-15v-52c0-8.284-6.716-15-15-15h-204c-8.284,0-15,6.716-15,15V186.5z" fill="none" stroke="#000000" stroke-linecap="round" stroke-linejoin="round" stroke-miterlimit="10" stroke-width="7"/><rect fill="none" height="27" stroke="#000000" stroke-linecap="round" stroke-linejoin="round" stroke-miterlimit="10" stroke-width="7" width="144" x="60.5" y="174.5"/><circle cx="224.667" cy="183.5" r="5"/><circle cx="244.667" cy="183.5" r="5"/><line fill="none" stroke="#000000" stroke-linecap="round" stroke-linejoin="round" stroke-miterlimit="10" stroke-width="7" x1="60" x2="245" y1="139.5" y2="139.5"/><line fill="none" stroke="#000000" stroke-linecap="round" stroke-linejoin="round" stroke-miterlimit="10" stroke-width="7" x1="60" x2="245" y1="155.5" y2="155.5"/><line fill="none" stroke="#000000" stroke-linecap="round" stroke-linejoin="round" stroke-miterlimit="10" stroke-width="7" x1="72.5" x2="72.5" y1="222" y2="240"/><line fill="none" stroke="#000000" stroke-linecap="round" stroke-linejoin="round" stroke-miterlimit="10" stroke-width="7" x1="102.5" x2="102.5" y1="222" y2="250"/><line fill="none" stroke="#000000" stroke-linecap="round" stroke-linejoin="round" stroke-miterlimit="10" stroke-width="7" x1="132.5" x2="132.5" y1="222" y2="260"/><line fill="none" stroke="#000000" stroke-linecap="round" stroke-linejoin="round" stroke-miterlimit="10" stroke-width="7" x1="162.5" x2="162.5" y1="222" y2="250"/><line fill="none" stroke="#000000" stroke-linecap="round" stroke-linejoin="round" stroke-miterlimit="10" stroke-width="7" x1="192.5" x2="192.5" y1="222" y2="240"/></svg>